<?xml version="1.0" encoding="UTF-8" standalone="no"?>
<!-- Created with Inkscape (http://www.inkscape.org/) -->

<svg
   xmlns:dc="http://purl.org/dc/elements/1.1/"
   xmlns:cc="http://creativecommons.org/ns#"
   xmlns:rdf="http://www.w3.org/1999/02/22-rdf-syntax-ns#"
   xmlns:svg="http://www.w3.org/2000/svg"
   xmlns="http://www.w3.org/2000/svg"
   xmlns:xlink="http://www.w3.org/1999/xlink"
   xmlns:sodipodi="http://sodipodi.sourceforge.net/DTD/sodipodi-0.dtd"
   xmlns:inkscape="http://www.inkscape.org/namespaces/inkscape"
   width="30.125244mm"
   height="30.125244mm"
   viewBox="0 0 30.125244 30.125244"
   version="1.1"
   id="svg5502"
   inkscape:version="0.92.4 (5da689c313, 2019-01-14)"
   sodipodi:docname="brak_drobnych.svg">
  <defs
     id="defs5496">
    <inkscape:path-effect
       effect="skeletal"
       id="path-effect5102"
       is_visible="true"
       pattern="M 0,5 C 0,2.24 2.24,0 5,0 7.76,0 10,2.24 10,5 10,7.76 7.76,10 5,10 2.24,10 0,7.76 0,5 Z"
       copytype="single_stretched"
       prop_scale="0.26458334"
       scale_y_rel="false"
       spacing="0"
       normal_offset="0"
       tang_offset="0"
       prop_units="false"
       vertical_pattern="false"
       fuse_tolerance="0" />
    <inkscape:path-effect
       effect="skeletal"
       id="path-effect5098"
       is_visible="true"
       pattern="M 0,5 C 0,2.24 2.24,0 5,0 7.76,0 10,2.24 10,5 10,7.76 7.76,10 5,10 2.24,10 0,7.76 0,5 Z"
       copytype="single_stretched"
       prop_scale="0.26458334"
       scale_y_rel="false"
       spacing="0"
       normal_offset="0"
       tang_offset="0"
       prop_units="false"
       vertical_pattern="false"
       fuse_tolerance="0" />
    <inkscape:path-effect
       effect="skeletal"
       id="path-effect5076"
       is_visible="true"
       pattern="M 0,5 C 0,2.24 2.24,0 5,0 7.76,0 10,2.24 10,5 10,7.76 7.76,10 5,10 2.24,10 0,7.76 0,5 Z"
       copytype="single_stretched"
       prop_scale="0.26458334"
       scale_y_rel="false"
       spacing="0"
       normal_offset="0"
       tang_offset="0"
       prop_units="false"
       vertical_pattern="false"
       fuse_tolerance="0" />
    <inkscape:path-effect
       effect="skeletal"
       id="path-effect5072"
       is_visible="true"
       pattern="M 0,5 C 0,2.24 2.24,0 5,0 7.76,0 10,2.24 10,5 10,7.76 7.76,10 5,10 2.24,10 0,7.76 0,5 Z"
       copytype="single_stretched"
       prop_scale="0.26458334"
       scale_y_rel="false"
       spacing="0"
       normal_offset="0"
       tang_offset="0"
       prop_units="false"
       vertical_pattern="false"
       fuse_tolerance="0" />
    <inkscape:path-effect
       effect="skeletal"
       id="path-effect5052"
       is_visible="true"
       pattern="M 0,5 C 0,2.24 2.24,0 5,0 7.76,0 10,2.24 10,5 10,7.76 7.76,10 5,10 2.24,10 0,7.76 0,5 Z"
       copytype="single_stretched"
       prop_scale="0.26458334"
       scale_y_rel="false"
       spacing="0"
       normal_offset="0"
       tang_offset="0"
       prop_units="false"
       vertical_pattern="false"
       fuse_tolerance="0" />
    <inkscape:path-effect
       effect="skeletal"
       id="path-effect5048"
       is_visible="true"
       pattern="M 0,5 C 0,2.24 2.24,0 5,0 7.76,0 10,2.24 10,5 10,7.76 7.76,10 5,10 2.24,10 0,7.76 0,5 Z"
       copytype="single_stretched"
       prop_scale="0.26458334"
       scale_y_rel="false"
       spacing="0"
       normal_offset="0"
       tang_offset="0"
       prop_units="false"
       vertical_pattern="false"
       fuse_tolerance="0" />
    <inkscape:path-effect
       effect="powerstroke"
       id="path-effect4780"
       is_visible="true"
       offset_points="0,0.5"
       sort_points="true"
       interpolator_type="CubicBezierJohan"
       interpolator_beta="0.2"
       start_linecap_type="zerowidth"
       linejoin_type="extrp_arc"
       miter_limit="4"
       end_linecap_type="zerowidth" />
    <inkscape:path-effect
       effect="powerstroke"
       id="path-effect4776"
       is_visible="true"
       offset_points="0,0.5"
       sort_points="true"
       interpolator_type="CubicBezierJohan"
       interpolator_beta="0.2"
       start_linecap_type="zerowidth"
       linejoin_type="extrp_arc"
       miter_limit="4"
       end_linecap_type="zerowidth" />
    <inkscape:path-effect
       effect="powerstroke"
       id="path-effect4772"
       is_visible="true"
       offset_points="0,0.5"
       sort_points="true"
       interpolator_type="CubicBezierJohan"
       interpolator_beta="0.2"
       start_linecap_type="zerowidth"
       linejoin_type="extrp_arc"
       miter_limit="4"
       end_linecap_type="zerowidth" />
    <clipPath
       clipPathUnits="userSpaceOnUse"
       id="clipPath19786">
      <rect
         style="opacity:1;vector-effect:none;fill:#00ccff;fill-opacity:1;fill-rule:nonzero;stroke:none;stroke-width:2.65039372;stroke-linecap:round;stroke-linejoin:round;stroke-miterlimit:4;stroke-dasharray:none;stroke-dashoffset:0;stroke-opacity:1"
         id="rect19788"
         width="1437.3051"
         height="810.47406"
         x="2.835752"
         y="-811.65259"
         transform="rotate(0.24653992)" />
    </clipPath>
    <clipPath
       clipPathUnits="userSpaceOnUse"
       id="clipPath19790">
      <rect
         style="opacity:1;vector-effect:none;fill:#00ccff;fill-opacity:1;fill-rule:nonzero;stroke:none;stroke-width:2.65039372;stroke-linecap:round;stroke-linejoin:round;stroke-miterlimit:4;stroke-dasharray:none;stroke-dashoffset:0;stroke-opacity:1"
         id="rect19792"
         width="1437.3051"
         height="810.47406"
         x="2.835752"
         y="-811.65259"
         transform="rotate(0.24653992)" />
    </clipPath>
    <clipPath
       clipPathUnits="userSpaceOnUse"
       id="clipPath19794">
      <rect
         style="opacity:1;vector-effect:none;fill:#00ccff;fill-opacity:1;fill-rule:nonzero;stroke:none;stroke-width:2.65039372;stroke-linecap:round;stroke-linejoin:round;stroke-miterlimit:4;stroke-dasharray:none;stroke-dashoffset:0;stroke-opacity:1"
         id="rect19796"
         width="1437.3051"
         height="810.47406"
         x="2.835752"
         y="-811.65259"
         transform="rotate(0.24653992)" />
    </clipPath>
    <clipPath
       clipPathUnits="userSpaceOnUse"
       id="clipPath19798">
      <rect
         style="opacity:1;vector-effect:none;fill:#00ccff;fill-opacity:1;fill-rule:nonzero;stroke:none;stroke-width:2.65039372;stroke-linecap:round;stroke-linejoin:round;stroke-miterlimit:4;stroke-dasharray:none;stroke-dashoffset:0;stroke-opacity:1"
         id="rect19800"
         width="1437.3051"
         height="810.47406"
         x="2.835752"
         y="-811.65259" />
    </clipPath>
    <clipPath
       clipPathUnits="userSpaceOnUse"
       id="clipPath19802">
      <rect
         style="opacity:1;vector-effect:none;fill:#00ccff;fill-opacity:1;fill-rule:nonzero;stroke:none;stroke-width:2.65039372;stroke-linecap:round;stroke-linejoin:round;stroke-miterlimit:4;stroke-dasharray:none;stroke-dashoffset:0;stroke-opacity:1"
         id="rect19804"
         width="1437.3051"
         height="810.47406"
         x="2.835752"
         y="-811.65259" />
    </clipPath>
    <clipPath
       clipPathUnits="userSpaceOnUse"
       id="clipPath19806">
      <rect
         style="opacity:1;vector-effect:none;fill:#00ccff;fill-opacity:1;fill-rule:nonzero;stroke:none;stroke-width:2.65039372;stroke-linecap:round;stroke-linejoin:round;stroke-miterlimit:4;stroke-dasharray:none;stroke-dashoffset:0;stroke-opacity:1"
         id="rect19808"
         width="1437.3051"
         height="810.47406"
         x="2.835752"
         y="-811.65259" />
    </clipPath>
    <clipPath
       clipPathUnits="userSpaceOnUse"
       id="clipPath19810">
      <rect
         style="opacity:1;vector-effect:none;fill:#00ccff;fill-opacity:1;fill-rule:nonzero;stroke:none;stroke-width:2.65039372;stroke-linecap:round;stroke-linejoin:round;stroke-miterlimit:4;stroke-dasharray:none;stroke-dashoffset:0;stroke-opacity:1"
         id="rect19812"
         width="1437.3051"
         height="810.47406"
         x="2.835752"
         y="-811.65259"
         transform="rotate(0.24654049)" />
    </clipPath>
    <inkscape:path-effect
       effect="skeletal"
       id="path-effect5076-1"
       is_visible="true"
       pattern="M 0,5 C 0,2.24 2.24,0 5,0 7.76,0 10,2.24 10,5 10,7.76 7.76,10 5,10 2.24,10 0,7.76 0,5 Z"
       copytype="single_stretched"
       prop_scale="0.26458334"
       scale_y_rel="false"
       spacing="0"
       normal_offset="0"
       tang_offset="0"
       prop_units="false"
       vertical_pattern="false"
       fuse_tolerance="0" />
    <linearGradient
       inkscape:collect="always"
       id="linearGradient2616">
      <stop
         style="stop-color:#2484c6;stop-opacity:1;"
         offset="0"
         id="stop2612" />
      <stop
         style="stop-color:#000000;stop-opacity:1"
         offset="1"
         id="stop2614" />
    </linearGradient>
    <inkscape:path-effect
       end_linecap_type="zerowidth"
       miter_limit="4"
       linejoin_type="extrp_arc"
       start_linecap_type="zerowidth"
       interpolator_beta="0.2"
       interpolator_type="CubicBezierJohan"
       sort_points="true"
       offset_points="3,0.13229166"
       is_visible="true"
       id="path-effect2600"
       effect="powerstroke" />
    <inkscape:path-effect
       is_visible="true"
       id="path-effect2598"
       effect="spiro" />
    <inkscape:path-effect
       end_linecap_type="zerowidth"
       miter_limit="4"
       linejoin_type="extrp_arc"
       start_linecap_type="zerowidth"
       interpolator_beta="0.2"
       interpolator_type="CubicBezierJohan"
       sort_points="true"
       offset_points="2,0.13229166"
       is_visible="true"
       id="path-effect2594"
       effect="powerstroke" />
    <inkscape:path-effect
       is_visible="true"
       id="path-effect2592"
       effect="spiro" />
    <inkscape:path-effect
       end_linecap_type="zerowidth"
       miter_limit="4"
       linejoin_type="extrp_arc"
       start_linecap_type="zerowidth"
       interpolator_beta="0.2"
       interpolator_type="CubicBezierJohan"
       sort_points="true"
       offset_points="6,0.13229166"
       is_visible="true"
       id="path-effect2369"
       effect="powerstroke" />
    <inkscape:path-effect
       is_visible="true"
       id="path-effect2367"
       effect="spiro" />
    <inkscape:path-effect
       end_linecap_type="zerowidth"
       miter_limit="4"
       linejoin_type="extrp_arc"
       start_linecap_type="zerowidth"
       interpolator_beta="0.2"
       interpolator_type="CubicBezierJohan"
       sort_points="true"
       offset_points="6,0.13229166"
       is_visible="true"
       id="path-effect2363"
       effect="powerstroke" />
    <inkscape:path-effect
       is_visible="true"
       id="path-effect2361"
       effect="spiro" />
    <inkscape:path-effect
       end_linecap_type="zerowidth"
       miter_limit="4"
       linejoin_type="extrp_arc"
       start_linecap_type="zerowidth"
       interpolator_beta="0.2"
       interpolator_type="CubicBezierJohan"
       sort_points="true"
       offset_points="5,0.13229166"
       is_visible="true"
       id="path-effect2357"
       effect="powerstroke" />
    <inkscape:path-effect
       is_visible="true"
       id="path-effect2355"
       effect="spiro" />
    <inkscape:path-effect
       end_linecap_type="zerowidth"
       miter_limit="4"
       linejoin_type="extrp_arc"
       start_linecap_type="zerowidth"
       interpolator_beta="0.2"
       interpolator_type="CubicBezierJohan"
       sort_points="true"
       offset_points="4,0.13229166"
       is_visible="true"
       id="path-effect2342"
       effect="powerstroke" />
    <inkscape:path-effect
       is_visible="true"
       id="path-effect2340"
       effect="spiro" />
    <inkscape:path-effect
       end_linecap_type="zerowidth"
       miter_limit="4"
       linejoin_type="extrp_arc"
       start_linecap_type="zerowidth"
       interpolator_beta="0.2"
       interpolator_type="CubicBezierJohan"
       sort_points="true"
       offset_points="4,0.13229166"
       is_visible="true"
       id="path-effect2336"
       effect="powerstroke" />
    <inkscape:path-effect
       is_visible="true"
       id="path-effect2334"
       effect="spiro" />
    <inkscape:path-effect
       end_linecap_type="zerowidth"
       miter_limit="4"
       linejoin_type="extrp_arc"
       start_linecap_type="zerowidth"
       interpolator_beta="0.2"
       interpolator_type="CubicBezierJohan"
       sort_points="true"
       offset_points="3,0.13229166"
       is_visible="true"
       id="path-effect2330"
       effect="powerstroke" />
    <inkscape:path-effect
       end_linecap_type="zerowidth"
       miter_limit="4"
       linejoin_type="extrp_arc"
       start_linecap_type="zerowidth"
       interpolator_beta="0.2"
       interpolator_type="CubicBezierJohan"
       sort_points="true"
       offset_points="2,0.13229166"
       is_visible="true"
       id="path-effect2326"
       effect="powerstroke" />
    <inkscape:path-effect
       fuse_tolerance="0"
       vertical_pattern="false"
       prop_units="false"
       tang_offset="0"
       normal_offset="0"
       spacing="0"
       scale_y_rel="false"
       prop_scale="0.26458333"
       copytype="single_stretched"
       pattern="M 0,5 C 0,2.24 2.24,0 5,0 7.76,0 10,2.24 10,5 10,7.76 7.76,10 5,10 2.24,10 0,7.76 0,5 Z"
       is_visible="true"
       id="path-effect2322"
       effect="skeletal" />
    <inkscape:path-effect
       fuse_tolerance="0"
       vertical_pattern="false"
       prop_units="false"
       tang_offset="0"
       normal_offset="0"
       spacing="0"
       scale_y_rel="false"
       prop_scale="0.26458333"
       copytype="single_stretched"
       pattern="M 0,5 C 0,2.24 2.24,0 5,0 7.76,0 10,2.24 10,5 10,7.76 7.76,10 5,10 2.24,10 0,7.76 0,5 Z"
       is_visible="true"
       id="path-effect2318"
       effect="skeletal" />
    <inkscape:path-effect
       fuse_tolerance="0"
       vertical_pattern="false"
       prop_units="false"
       tang_offset="0"
       normal_offset="0"
       spacing="0"
       scale_y_rel="false"
       prop_scale="0.26458333"
       copytype="single_stretched"
       pattern="M 0,5 C 0,2.24 2.24,0 5,0 7.76,0 10,2.24 10,5 10,7.76 7.76,10 5,10 2.24,10 0,7.76 0,5 Z"
       is_visible="true"
       id="path-effect2314"
       effect="skeletal" />
    <linearGradient
       gradientTransform="matrix(1.2230609,0,0,1.2230609,-533.37147,-528.86167)"
       gradientUnits="userSpaceOnUse"
       y2="494.40628"
       x2="513.05524"
       y1="480.25977"
       x1="481.61914"
       id="linearGradient2401"
       xlink:href="#linearGradient2616"
       inkscape:collect="always" />
    <linearGradient
       gradientTransform="matrix(2.0003629,0,0,2.0003629,369.75527,570.53654)"
       gradientUnits="userSpaceOnUse"
       y2="59.917557"
       x2="55.111713"
       y1="59.255383"
       x1="160.01086"
       id="linearGradient1664"
       xlink:href="#linearGradient2616"
       inkscape:collect="always" />
    <linearGradient
       gradientTransform="matrix(0.52926268,0,0,0.52926268,43.933957,125.05237)"
       gradientUnits="userSpaceOnUse"
       y2="59.917557"
       x2="55.111713"
       y1="59.255383"
       x1="160.01086"
       id="linearGradient1664-9"
       xlink:href="#linearGradient2616"
       inkscape:collect="always" />
    <linearGradient
       y2="164.84158"
       x2="133.40237"
       y1="138.89592"
       x1="167.66896"
       gradientUnits="userSpaceOnUse"
       id="linearGradient2604"
       xlink:href="#linearGradient2616"
       inkscape:collect="always" />
  </defs>
  <sodipodi:namedview
     id="base"
     pagecolor="#ffffff"
     bordercolor="#666666"
     borderopacity="1.0"
     inkscape:pageopacity="0.0"
     inkscape:pageshadow="2"
     inkscape:zoom="3.959798"
     inkscape:cx="6.9962814"
     inkscape:cy="22.141989"
     inkscape:document-units="mm"
     inkscape:current-layer="layer1"
     showgrid="false"
     fit-margin-top="2"
     fit-margin-left="2"
     fit-margin-right="2"
     fit-margin-bottom="2"
     inkscape:window-width="1920"
     inkscape:window-height="1017"
     inkscape:window-x="-8"
     inkscape:window-y="-8"
     inkscape:window-maximized="1"
     showguides="false" />
  <metadata
     id="metadata5499">
    <rdf:RDF>
      <cc:Work
         rdf:about="">
        <dc:format>image/svg+xml</dc:format>
        <dc:type
           rdf:resource="http://purl.org/dc/dcmitype/StillImage" />
        <dc:title></dc:title>
      </cc:Work>
    </rdf:RDF>
  </metadata>
  <g
     inkscape:label="Layer 1"
     inkscape:groupmode="layer"
     id="layer1"
     transform="translate(161.24721,-148.88822)">
    <circle
       style="fill:#ececec;fill-opacity:1;fill-rule:nonzero;stroke:none;stroke-width:0.79296124"
       id="path3388-1-1-1"
       cx="832.61383"
       cy="-130.76859"
       r="37.027905"
       transform="matrix(0.35277451,-0.00151798,0.00151798,0.35277451,-439.71102,211.34656)"
       clip-path="url(#clipPath19810)" />
    <g
       id="g4768"
       transform="matrix(0.26458333,0,0,0.26458333,-154.0229,155.94812)">
      <g
         id="XMLID_22_">
        <path
           d="m 52.003,29.211 v 1.238 C 52.003,37.381 40.362,43 26.003,43 18.077,43 10.984,41.286 6.215,38.586 7.823,44.831 18.751,50 32.003,50 c 14.359,0 26,-6.068 26,-13 0,-3.048 -2.256,-5.734 -6,-7.789"
           style="fill:#00ccff"
           id="XMLID_143_"
           inkscape:connector-curvature="0" />
        <path
           d="m 32.003,50 c -14.359,0 -26,-6.068 -26,-13 v 8.448 c 0,6.932 11.641,12.552 26,12.552 14.359,0 26,-5.62 26,-12.552 V 37 c 0,6.932 -11.641,13 -26,13"
           style="fill:#00aad4"
           id="XMLID_142_"
           inkscape:connector-curvature="0" />
        <path
           d="m 9.003,51.349 c 0.59,0.539 1.259,1.055 2,1.545 v -8.291 c -0.741,-0.51 -1.41,-1.045 -2,-1.603 z"
           style="fill:#0088aa"
           id="XMLID_141_"
           inkscape:connector-curvature="0" />
        <path
           d="m 53.003,44.603 v 8.291 c 0.741,-0.489 1.41,-1.006 2,-1.545 V 43 c -0.589,0.558 -1.258,1.093 -2,1.603"
           style="fill:#0088aa"
           id="XMLID_140_"
           inkscape:connector-curvature="0" />
        <path
           d="m 13.003,54.06 c 0.632,0.327 1.3,0.636 2,0.929 v -8.193 c -0.7,-0.308 -1.368,-0.633 -2,-0.975 z"
           style="fill:#0088aa"
           id="XMLID_139_"
           inkscape:connector-curvature="0" />
        <path
           d="m 49.003,54.988 c 0.7,-0.292 1.368,-0.602 2,-0.929 V 45.82 c -0.632,0.342 -1.3,0.668 -2,0.975 z"
           style="fill:#0088aa"
           id="XMLID_138_"
           inkscape:connector-curvature="0" />
        <path
           d="m 17.003,55.745 c 0.646,0.221 1.313,0.427 2,0.619 V 48.25 c -0.687,-0.204 -1.354,-0.423 -2,-0.656 z"
           style="fill:#0088aa"
           id="XMLID_137_"
           inkscape:connector-curvature="0" />
        <path
           d="m 45.003,56.364 c 0.687,-0.192 1.354,-0.398 2,-0.619 v -8.151 c -0.646,0.233 -1.313,0.452 -2,0.656 z"
           style="fill:#0088aa"
           id="XMLID_136_"
           inkscape:connector-curvature="0" />
        <path
           d="m 22.003,57.084 c 0.653,0.132 1.321,0.25 2,0.355 v -8.044 c -0.679,-0.113 -1.347,-0.239 -2,-0.379 z"
           style="fill:#0088aa"
           id="XMLID_135_"
           inkscape:connector-curvature="0" />
        <path
           d="m 40.003,57.439 c 0.679,-0.106 1.347,-0.224 2,-0.355 v -8.069 c -0.653,0.14 -1.321,0.266 -2,0.38 z"
           style="fill:#0088aa"
           id="XMLID_134_"
           inkscape:connector-curvature="0" />
        <path
           d="m 28.003,57.899 c 0.658,0.049 1.326,0.083 2,0.107 v -8.003 c -0.674,-0.026 -1.342,-0.062 -2,-0.115 z"
           style="fill:#0088aa"
           id="XMLID_133_"
           inkscape:connector-curvature="0" />
        <path
           d="m 34.003,58.007 c 0.674,-0.025 1.342,-0.058 2,-0.107 v -8.012 c -0.658,0.053 -1.326,0.089 -2,0.116 z"
           style="fill:#0088aa"
           id="XMLID_132_"
           inkscape:connector-curvature="0" />
        <path
           d="m 26.003,34.993 c -14.359,0 -26,-6.068 -26,-13 v 8.448 c 0,6.932 11.641,12.552 26,12.552 14.359,0 26,-5.62 26,-12.552 v -8.448 c 0,6.932 -11.641,13 -26,13"
           style="fill:#00aad4"
           id="XMLID_131_"
           inkscape:connector-curvature="0" />
        <path
           d="m 3.003,36.342 c 0.59,0.539 1.259,1.055 2,1.545 v -8.291 c -0.741,-0.51 -1.41,-1.045 -2,-1.602 z"
           style="fill:#0088aa"
           id="XMLID_130_"
           inkscape:connector-curvature="0" />
        <path
           d="m 47.003,29.596 v 8.291 c 0.741,-0.489 1.41,-1.006 2,-1.545 v -8.349 c -0.589,0.558 -1.258,1.093 -2,1.603"
           style="fill:#0088aa"
           id="XMLID_129_"
           inkscape:connector-curvature="0" />
        <path
           d="m 7.003,39.053 c 0.632,0.327 1.3,0.636 2,0.929 v -8.193 c -0.7,-0.308 -1.368,-0.633 -2,-0.975 z"
           style="fill:#0088aa"
           id="XMLID_128_"
           inkscape:connector-curvature="0" />
        <path
           d="m 43.003,39.981 c 0.7,-0.292 1.368,-0.601 2,-0.929 v -8.239 c -0.632,0.342 -1.3,0.668 -2,0.975 z"
           style="fill:#0088aa"
           id="XMLID_127_"
           inkscape:connector-curvature="0" />
        <path
           d="m 11.003,40.738 c 0.646,0.221 1.313,0.427 2,0.619 v -8.114 c -0.687,-0.204 -1.354,-0.423 -2,-0.656 z"
           style="fill:#0088aa"
           id="XMLID_126_"
           inkscape:connector-curvature="0" />
        <path
           d="m 39.003,41.357 c 0.687,-0.192 1.354,-0.398 2,-0.619 v -8.151 c -0.646,0.233 -1.313,0.452 -2,0.656 z"
           style="fill:#0088aa"
           id="XMLID_125_"
           inkscape:connector-curvature="0" />
        <path
           d="m 16.003,42.077 c 0.653,0.132 1.321,0.25 2,0.355 v -8.044 c -0.679,-0.113 -1.347,-0.239 -2,-0.379 z"
           style="fill:#0088aa"
           id="XMLID_124_"
           inkscape:connector-curvature="0" />
        <path
           d="m 34.003,42.433 c 0.679,-0.106 1.347,-0.224 2,-0.355 v -8.069 c -0.653,0.14 -1.321,0.266 -2,0.38 z"
           style="fill:#0088aa"
           id="XMLID_123_"
           inkscape:connector-curvature="0" />
        <path
           d="m 22.003,42.893 c 0.658,0.049 1.326,0.083 2,0.107 v -8.003 c -0.674,-0.026 -1.342,-0.062 -2,-0.115 z"
           style="fill:#0088aa"
           id="XMLID_122_"
           inkscape:connector-curvature="0" />
        <path
           d="m 28.003,43 c 0.674,-0.025 1.342,-0.058 2,-0.107 v -8.012 c -0.658,0.053 -1.326,0.089 -2,0.116 z"
           style="fill:#0088aa"
           id="XMLID_121_"
           inkscape:connector-curvature="0" />
        <path
           d="M 51.32,33.302 C 48.643,38.858 38.329,43 26.003,43 c -4.604,0 -8.926,-0.58 -12.677,-1.593 3.628,2.463 10.085,4.559 18.677,4.559 13.682,0 22,-5.311 22,-8.966 0,-1.22 -0.939,-2.514 -2.683,-3.698"
           style="fill:#aaeeff"
           id="XMLID_120_"
           inkscape:connector-curvature="0" />
        <path
           d="m 31.003,33 c -14.359,0 -26,-5.62 -26,-12.552 v -5.652 c -3.141,1.969 -5,4.438 -5,7.204 0,6.932 11.641,13 26,13 6.914,0 13.192,-1.409 17.849,-3.642 C 40.061,32.401 35.678,33 31.003,33"
           style="fill:#2ad4ff"
           id="XMLID_119_"
           inkscape:connector-curvature="0" />
        <path
           d="m 31.003,24.993 c -14.359,0 -26,-6.068 -26,-13 v 8.448 c 0,6.932 11.641,12.552 26,12.552 14.359,0 26,-5.62 26,-12.552 v -8.448 c 0,6.932 -11.641,13 -26,13"
           style="fill:#00aad4"
           id="XMLID_118_"
           inkscape:connector-curvature="0" />
        <path
           d="m 8.003,26.342 c 0.59,0.539 1.259,1.055 2,1.545 v -8.291 c -0.741,-0.51 -1.41,-1.045 -2,-1.602 z"
           style="fill:#0088aa"
           id="XMLID_117_"
           inkscape:connector-curvature="0" />
        <path
           d="m 52.003,19.596 v 8.291 c 0.741,-0.489 1.41,-1.006 2,-1.545 v -8.349 c -0.589,0.558 -1.258,1.093 -2,1.603"
           style="fill:#0088aa"
           id="XMLID_116_"
           inkscape:connector-curvature="0" />
        <path
           d="m 12.003,29.053 c 0.632,0.327 1.3,0.636 2,0.929 v -8.193 c -0.7,-0.308 -1.368,-0.633 -2,-0.975 z"
           style="fill:#0088aa"
           id="XMLID_115_"
           inkscape:connector-curvature="0" />
        <path
           d="m 48.003,29.981 c 0.7,-0.292 1.368,-0.601 2,-0.929 v -8.239 c -0.632,0.342 -1.3,0.668 -2,0.975 z"
           style="fill:#0088aa"
           id="XMLID_114_"
           inkscape:connector-curvature="0" />
        <path
           d="m 16.003,30.738 c 0.646,0.221 1.313,0.427 2,0.619 v -8.114 c -0.687,-0.204 -1.354,-0.423 -2,-0.656 z"
           style="fill:#0088aa"
           id="XMLID_113_"
           inkscape:connector-curvature="0" />
        <path
           d="m 44.003,31.357 c 0.687,-0.192 1.354,-0.398 2,-0.619 v -8.151 c -0.646,0.233 -1.313,0.452 -2,0.656 z"
           style="fill:#0088aa"
           id="XMLID_112_"
           inkscape:connector-curvature="0" />
        <path
           d="m 21.003,32.077 c 0.653,0.132 1.321,0.25 2,0.355 v -8.044 c -0.679,-0.113 -1.347,-0.239 -2,-0.379 z"
           style="fill:#0088aa"
           id="XMLID_111_"
           inkscape:connector-curvature="0" />
        <path
           d="m 39.003,32.433 c 0.679,-0.106 1.347,-0.224 2,-0.355 v -8.069 c -0.653,0.14 -1.321,0.266 -2,0.38 z"
           style="fill:#0088aa"
           id="XMLID_110_"
           inkscape:connector-curvature="0" />
        <path
           d="m 27.003,32.893 c 0.658,0.049 1.326,0.083 2,0.107 v -8.003 c -0.674,-0.026 -1.342,-0.062 -2,-0.115 z"
           style="fill:#0088aa"
           id="XMLID_109_"
           inkscape:connector-curvature="0" />
        <path
           d="m 33.003,33 c 0.674,-0.025 1.342,-0.058 2,-0.107 v -8.012 c -0.658,0.053 -1.326,0.089 -2,0.116 z"
           style="fill:#0088aa"
           id="XMLID_108_"
           inkscape:connector-curvature="0" />
        <path
           d="m 57.003,12 c 0,6.932 -11.641,13 -26,13 -14.359,0 -26,-6.068 -26,-13 0,-6.932 11.641,-12 26,-12 14.359,0 26,5.068 26,12"
           style="fill:#00ccff"
           id="XMLID_107_"
           inkscape:connector-curvature="0" />
        <path
           d="m 31.003,20.966 c -13.682,0 -22,-5.31 -22,-8.966 0,-3.655 8.318,-9 22,-9 13.682,0 22,5.345 22,9 0,3.656 -8.318,8.966 -22,8.966"
           style="fill:#aaeeff"
           id="XMLID_106_"
           inkscape:connector-curvature="0" />
        <g
           transform="matrix(3.7795276,0,0,3.7795276,-310.49205,-115.62731)"
           id="layer1-7"
           inkscape:label="Layer 1">
          <g
             id="g1204"
             transform="matrix(0.03096871,0,0,0.03096871,86.745289,31.69918)">
            <g
               id="g1616"
               transform="translate(572.83674,-36.678812)">
              <g
                 id="g1753"
                 transform="translate(2.2884562,6.8653686)">
                <path
                   inkscape:connector-curvature="0"
                   id="path905"
                   style="font-style:normal;font-variant:normal;font-weight:normal;font-stretch:normal;font-size:133.33332825px;line-height:1.25;font-family:'Bauhaus 93';-inkscape-font-specification:'Bauhaus 93, ';letter-spacing:-8px;word-spacing:0px;fill:#0088aa;fill-opacity:1;stroke:none;stroke-width:0.36293635"
                   d="m -377.29976,96.233549 c 0,0 16.66924,6.812271 16.66924,6.812271 -0.87519,0.54433 -1.76911,1.00254 -2.68178,1.37464 -5.40368,2.20312 -12.0309,3.17082 -19.88218,2.90327 -7.85139,-0.26753 -14.97924,-1.70934 -21.3841,-4.32568 -6.23334,-2.54627 -9.70668,-5.445116 -10.41954,-8.696686 -0.68895,-3.26189 1.57209,-5.956294 6.78363,-8.082985 5.81258,-2.371963 12.42889,-3.405439 19.84834,-3.100225 7.41464,0.283663 14.64111,1.864144 21.67875,4.741139 0,0 21.06383,8.610925 21.06383,8.610925 0,0 -13.47709,5.494802 -13.47709,5.494802 0,0 -19.90058,-8.13318 -19.90058,-8.13318 -2.26912,-0.927366 -4.54713,-1.475877 -6.83399,-1.645502 -2.26284,-0.179436 -4.17487,0.04928 -5.73603,0.686144 -1.41702,0.578057 -2.02425,1.330097 -1.82174,2.256101 0.20252,0.925958 1.15114,1.73516 2.84583,2.42762 1.78079,0.727639 3.71388,1.135164 5.79931,1.222597 2.08545,0.08742 3.84867,-0.162711 5.28969,-0.750417 1.17687,-0.47997 1.89634,-1.078244 2.15841,-1.794834 0,0 0,0 0,0" />
                <path
                   inkscape:connector-curvature="0"
                   id="path907"
                   style="font-style:normal;font-variant:normal;font-weight:normal;font-stretch:normal;font-size:133.33332825px;line-height:1.25;font-family:'Bauhaus 93';-inkscape-font-specification:'Bauhaus 93, ';letter-spacing:-8px;word-spacing:0px;fill:#0088aa;fill-opacity:1;stroke:none;stroke-width:0.36293635"
                   d="m -318.72929,100.87014 c 0,0 -13.99318,-5.721363 -13.99318,-5.721363 2.74499,-0.368933 4.80242,-0.832615 6.17227,-1.391051 4.37416,-1.783187 4.26779,-4.142823 -0.3199,-7.079109 -0.69028,1.641487 -2.16504,2.922752 -4.42425,3.843863 -3.34055,1.361993 -7.57077,1.879287 -12.6909,1.551946 -5.1489,-0.339086 -10.02071,-1.447839 -14.61569,-3.326386 0,0 -27.01853,-11.045872 -27.01853,-11.045872 0,0 13.48158,-5.501386 13.48158,-5.501386 0,0 23.09808,9.445657 23.09808,9.445657 2.55622,1.04533 4.72356,1.205284 6.50218,0.479882 1.70657,-0.696017 1.15257,-1.619593 -1.66215,-2.770758 0,0 -22.71033,-9.288067 -22.71033,-9.288067 0,0 13.48664,-5.50345 13.48664,-5.50345 0,0 38.34725,15.687512 38.34725,15.687512 7.14913,2.924643 11.23634,5.971267 12.26227,9.139816 1.20905,3.773038 -1.03495,6.820165 -6.73136,9.141708 -2.49949,1.018656 -5.56081,1.797668 -9.18398,2.337058 0,0 0,0 0,0" />
                <path
                   inkscape:connector-curvature="0"
                   id="path2310"
                   d="m -586.50943,58.091321 c -0.40013,0.192882 -0.64128,0.393377 -0.67824,0.59676 -0.10512,0.578805 3.43802,0.327023 7.86946,-0.559854 7.04168,-1.409136 8.69666,-1.274408 13.15586,1.066455 2.80545,1.472795 5.3475,3.549589 5.64745,4.616978 0,0 -0.003,0.0012 -0.003,0.0012 0.31304,1.113504 1.27053,1.503651 2.24422,0.916194 2.37166,-1.430456 -4.6038,-6.950092 -10.19202,-8.065077 -4.53558,-0.905042 -15.23965,0.077 -18.04315,1.427115 0,0 -5.3e-4,1.83e-4 -5.3e-4,1.83e-4 m -0.80304,3.777069 c -0.29608,-0.01009 0.50335,0.744733 2.12218,2.253763 1.79566,1.673844 4.68873,3.188619 6.42332,3.36641 1.8828,0.192832 3.27375,1.732323 3.45718,3.817522 0.16925,1.921323 0.59038,6.921571 0.93067,11.111952 0.34023,4.189514 -0.84713,11.314996 -2.63399,15.832891 -4.97748,12.584428 -3.26359,18.385398 8.31196,28.106708 8.0973,6.80264 12.35631,9.19964 23.10373,13.00384 16.04617,5.67984 26.49762,7.68637 44.9149,8.62366 0,0 -0.003,10e-4 -0.003,10e-4 4.78892,0.24371 9.81236,0.21856 14.84787,-0.0352 0.25648,-0.30494 0.61279,-0.59461 1.05922,-0.86111 -8.39882,-1.07948 -19.43973,-2.9413 -31.25209,-6.1481 -14.88071,-4.01989 -29.71815,-9.9188 -38.75461,-17.31916 -8.8871,-7.27348 -11.21087,-15.1712 -10.62885,-22.5811 0.5623,-6.989329 3.16274,-13.570407 2.15644,-19.760685 -0.94625,-5.879475 -4.68119,-11.010348 -8.6538,-14.976002 -4.40915,0.758195 -6.56164,0.327379 -10.92751,-2.102886 -2.78246,-1.548885 -4.17691,-2.323813 -4.47308,-2.333899 0,0 -5e-4,1.96e-4 -5e-4,1.96e-4 m 15.41908,4.432745 c 4.02277,3.961714 7.89674,9.089721 9.04054,14.996598 1.19478,6.221736 -1.1775,12.861211 -1.48998,19.831323 -0.34606,7.40423 2.2301,15.18484 11.12309,22.26707 9.02932,7.1863 23.65337,12.87676 38.25152,16.73879 12.54146,3.30094 23.99305,5.05582 32.35324,6.05543 1.77124,-0.51797 3.94755,-0.7498 6.10481,-0.6503 5.37188,-3.53574 10.31913,-9.19622 7.96532,-16.9152 -0.80414,-2.75794 -2.54907,-5.82151 -5.57337,-9.0823 -4.80223,-5.11185 -12.37422,-10.2438 -22.25722,-14.79123 -8.62355,-3.97383 -18.77253,-7.432867 -27.37615,-11.222997 -12.87919,-5.658724 -22.28571,-11.958419 -28.98155,-17.68467 -4.61924,-3.975269 -7.66413,-7.421253 -9.78521,-10.157319 -2.93671,-0.232819 -5.75819,-0.05151 -8.73347,0.510233 -0.2289,0.04338 -0.42638,0.0679 -0.64344,0.105365 0,0 0.002,-7.93e-4 0.002,-7.93e-4 m 9.39287,-0.615094 c 2.14842,2.735715 5.28759,6.177906 10.03319,10.13305 6.80785,5.708981 16.31383,11.951523 29.21461,17.522962 8.63838,3.719055 18.86259,7.110113 27.75388,11.107343 10.17375,4.58102 18.06061,9.7875 23.13931,15.01149 3.27493,3.3284 5.24224,6.48266 6.2093,9.3361 2.50707,7.69012 -2.04531,13.43166 -7.34859,17.12033 0.78779,0.16513 1.50844,0.37842 2.13713,0.63252 6.68167,-0.94366 13.004,-2.25942 18.33607,-3.9412 12.91918,-4.07476 20.96124,-14.73041 17.19932,-22.79919 -6.29368,-13.49966 -21.13765,-21.246384 -65.07746,-33.954495 -17.1602,-4.963064 -36.10599,-11.294945 -42.10543,-14.070303 -8.11076,-3.752637 -14.00868,-5.661246 -19.49093,-6.098769 0,0 -4e-4,1.62e-4 -4e-4,1.62e-4 m 10.74896,48.508365 c 0.12672,-0.15308 0.66011,-0.0456 1.59231,0.34302 0,0 0.003,-0.001 0.003,-0.001 1.68475,0.70402 2.73825,1.6778 2.33595,2.16216 -0.40444,0.48543 -1.78322,-0.0913 -3.06791,-1.27918 -0.70965,-0.65655 -0.99192,-1.07087 -0.86488,-1.22416 0,0 10e-4,-6e-4 10e-4,-6e-4 m 45.97988,-18.259504 c 0.10225,-0.123207 1.08581,0.02237 2.98429,0.397866 2.62776,0.519561 4.47066,1.312993 4.0972,1.76269 -0.37335,0.449456 -2.52564,0.02397 -4.7777,-0.945963 -1.63101,-0.69951 -2.40589,-1.091498 -2.30355,-1.214693 0,0 -2.4e-4,10e-5 -2.4e-4,10e-5 m -38.11029,26.833604 c 0.16172,-0.0119 0.50458,0.11263 1.03959,0.3901 1.90883,0.98409 3.9906,2.73564 4.62512,3.89319 0.63544,1.15736 -0.92734,0.35352 -3.4714,-1.78797 -1.58996,-1.33853 -2.38965,-2.21256 -2.29931,-2.43804 0.0136,-0.0339 0.051,-0.0526 0.10382,-0.057 0,0 0.002,-3e-4 0.002,-3e-4 m 71.76985,-26.019787 c 0.80238,-0.965388 13.85653,5.388397 22.41785,10.909867 4.47849,2.88804 7.49571,5.33765 6.70443,5.44544 -0.79039,0.10763 -4.98308,-2.0851 -9.31411,-4.87342 -4.3324,-2.78842 -10.66538,-6.38423 -14.07637,-7.99145 -3.41025,-1.607532 -5.991,-3.178178 -5.7318,-3.490437 0,0 0,0 0,0 m -9.01614,9.649997 c 0.14141,-0.0733 0.57437,0.0622 1.29636,0.43587 1.92476,0.9962 3.66221,2.50479 3.86195,3.35316 0.19962,0.84841 -1.36715,0.0339 -3.4976,-1.80971 -1.32921,-1.1527 -1.89635,-1.85691 -1.66092,-1.97923 0,0 2.1e-4,-9e-5 2.1e-4,-9e-5 m 31.04267,6.17236 c 0.16181,-0.0119 0.50435,0.11266 1.03895,0.3903 1.90607,0.98475 3.9843,2.73713 4.61725,3.89514 0.63294,1.15795 -0.92832,0.35367 -3.46813,-1.78887 -1.58736,-1.33919 -2.38506,-2.21365 -2.29432,-2.43925 0.0137,-0.034 0.0511,-0.0526 0.10397,-0.057 0,0 0.002,-3.2e-4 0.002,-3.2e-4 m -13.49534,8.99938 c 0.12754,-0.15337 0.66778,-0.0452 1.59902,0.34324 1.68292,0.70376 2.73326,1.67404 2.33012,2.15816 -0.40548,0.48523 -1.7863,-0.0899 -3.06456,-1.27871 -0.70806,-0.65631 -0.98933,-1.07051 -0.86205,-1.22372 0,0 -0.003,0.001 -0.003,0.001"
                   style="fill:#0088aa;fill-opacity:1;stroke-width:1.20187068" />
                <path
                   id="rect2785"
                   d="m -484.37135,83.257956 c 0,0 13.64999,-5.574884 13.64999,-5.574884 0,0 85.28854,34.838288 85.28854,34.838288 0,0 -13.64998,5.56532 -13.64998,5.56532 0,0 -85.28855,-34.828724 -85.28855,-34.828724"
                   style="opacity:1;vector-effect:none;fill:#0088aa;fill-opacity:1;fill-rule:nonzero;stroke:#2484c6;stroke-width:0.26490262;stroke-linecap:round;stroke-linejoin:round;stroke-miterlimit:4;stroke-dasharray:none;stroke-dashoffset:0;stroke-opacity:0.02156336"
                   inkscape:connector-curvature="0" />
                <path
                   style="opacity:1;fill:#0088aa;fill-opacity:1;stroke-width:0.06146839"
                   d="m -533.93024,71.249887 c 0.80146,0.356968 1.6836,0.725592 2.67119,1.100553 3.17036,1.207279 6.71349,2.227773 10.26432,3.227638 2.2248,0.62948 4.23245,1.18733 6.12779,1.710099 14.73409,-2.36526 28.16752,-3.428127 39.15524,-2.99305 6.63523,0.262734 11.98329,1.02117 16.66994,2.364116 1.09627,0.314131 1.75942,0.550034 3.18047,1.130587 2.70053,1.10326 4.41228,2.151484 5.92534,3.62957 4.48929,4.385635 3.54393,10.439589 -2.00281,17.355129 1.95442,0.852304 4.37303,1.972291 6.93962,3.373141 3.54346,1.95824 6.19089,3.82285 8.18317,5.45268 2.1089,-1.60506 4.1051,-3.20833 5.95973,-4.81008 8.17386,-7.05937 13.39313,-13.959413 14.9228,-19.729053 1.51108,-5.699347 -0.31185,-10.44605 -5.4002,-14.057572 -3.23896,-2.298985 -7.61491,-4.065224 -13.37576,-5.39864 -15.83256,-3.664586 -40.61884,-3.026527 -70.32845,1.810809 -9.41758,1.533369 -19.07518,3.486636 -28.89286,5.834266 0,0 4.7e-4,-1.93e-4 4.7e-4,-1.93e-4"
                   id="path826"
                   inkscape:connector-curvature="0"
                   sodipodi:nodetypes="ccccccscccccccsscc" />
              </g>
            </g>
          </g>
        </g>
      </g>
      <g
         id="g4676" />
      <g
         id="g4678" />
      <g
         id="g4680" />
      <g
         id="g4682" />
      <g
         id="g4684" />
      <g
         id="g4686" />
      <g
         id="g4688" />
      <g
         id="g4690" />
      <g
         id="g4692" />
      <g
         id="g4694" />
      <g
         id="g4696" />
      <g
         id="g4698" />
      <g
         id="g4700" />
      <g
         id="g4702" />
      <g
         id="g4704" />
      <path
         style="fill:#ff0000;stroke:none;stroke-width:1px;stroke-linecap:butt;stroke-linejoin:miter;stroke-opacity:1"
         d="M 1.728863,1.224295 C 2.2348296,0.69773739 15.828616,12.938006 32.072136,28.546323 48.315656,44.154641 61.088163,57.249611 60.582196,57.776169 60.07623,58.302727 46.482443,46.062458 30.238924,30.454141 13.995404,14.845824 1.2228964,1.7508526 1.728863,1.224295 Z"
         id="path5096"
         inkscape:connector-curvature="0"
         inkscape:path-effect="#path-effect5098"
         inkscape:original-d="m 1.728863,1.224295 58.853329,56.55187" />
      <path
         style="fill:#ff0000;stroke:none;stroke-width:1px;stroke-linecap:butt;stroke-linejoin:miter;stroke-opacity:1"
         d="M 60.582192,1.169022 C 61.083367,1.7001418 48.010118,14.851196 31.400833,30.524054 14.791547,46.196911 0.90479549,58.485858 0.40362008,57.954738 -0.09755534,57.423618 12.975694,44.272564 29.58498,28.599706 46.194265,12.926849 60.081017,0.63790215 60.582192,1.169022 Z"
         id="path5100"
         inkscape:connector-curvature="0"
         inkscape:path-effect="#path-effect5102"
         inkscape:original-d="M 60.582192,1.169022 0.403621,57.954737" />
    </g>
  </g>
</svg>
