<?xml version="1.0" encoding="UTF-8" standalone="no"?>
<!-- Created with Inkscape (http://www.inkscape.org/) -->

<svg
   xmlns:dc="http://purl.org/dc/elements/1.1/"
   xmlns:cc="http://creativecommons.org/ns#"
   xmlns:rdf="http://www.w3.org/1999/02/22-rdf-syntax-ns#"
   xmlns:svg="http://www.w3.org/2000/svg"
   xmlns="http://www.w3.org/2000/svg"
   xmlns:xlink="http://www.w3.org/1999/xlink"
   xmlns:sodipodi="http://sodipodi.sourceforge.net/DTD/sodipodi-0.dtd"
   xmlns:inkscape="http://www.inkscape.org/namespaces/inkscape"
   width="134.88824mm"
   height="73.648514mm"
   viewBox="0 0 134.88824 73.648514"
   version="1.1"
   id="svg8"
   sodipodi:docname="KalkomatPay2.svg"
   inkscape:version="0.92.4 (5da689c313, 2019-01-14)"
   inkscape:export-filename="C:\Users\fjzj65\Downloads\Kalkomat\icon.png"
   inkscape:export-xdpi="300"
   inkscape:export-ydpi="300">
  <defs
     id="defs2">
    <inkscape:path-effect
       effect="skeletal"
       id="path-effect1674"
       is_visible="true"
       pattern="M 0,5 C 0,2.24 2.24,0 5,0 7.76,0 10,2.24 10,5 10,7.76 7.76,10 5,10 2.24,10 0,7.76 0,5 Z"
       copytype="single_stretched"
       prop_scale="0.26458333"
       scale_y_rel="false"
       spacing="0"
       normal_offset="0"
       tang_offset="0"
       prop_units="false"
       vertical_pattern="false"
       fuse_tolerance="0" />
    <linearGradient
       inkscape:collect="always"
       id="linearGradient1662">
      <stop
         style="stop-color:#2484c6;stop-opacity:1;"
         offset="0"
         id="stop1658" />
      <stop
         style="stop-color:#000000;stop-opacity:1"
         offset="1"
         id="stop1660" />
    </linearGradient>
    <linearGradient
       inkscape:collect="always"
       id="linearGradient1377">
      <stop
         style="stop-color:#000000;stop-opacity:1;"
         offset="0"
         id="stop1373" />
      <stop
         style="stop-color:#000000;stop-opacity:0;"
         offset="1"
         id="stop1375" />
    </linearGradient>
    <linearGradient
       inkscape:collect="always"
       xlink:href="#linearGradient1377"
       id="linearGradient1379"
       x1="510.7113"
       y1="181.76138"
       x2="336.25629"
       y2="178.90424"
       gradientUnits="userSpaceOnUse" />
    <linearGradient
       inkscape:collect="always"
       xlink:href="#linearGradient1662"
       id="linearGradient1664"
       x1="160.01086"
       y1="59.255383"
       x2="55.111713"
       y2="59.917557"
       gradientUnits="userSpaceOnUse"
       gradientTransform="matrix(0.75777414,0,0,0.75777414,39.914589,14.620274)" />
    <linearGradient
       inkscape:collect="always"
       xlink:href="#linearGradient1662"
       id="linearGradient1664-4"
       x1="160.01086"
       y1="59.255383"
       x2="55.111713"
       y2="59.917557"
       gradientUnits="userSpaceOnUse"
       gradientTransform="matrix(0.75777413,0,0,0.75777413,80.749096,117.21825)" />
  </defs>
  <sodipodi:namedview
     id="base"
     pagecolor="#ffffff"
     bordercolor="#666666"
     borderopacity="1.0"
     inkscape:pageopacity="0.0"
     inkscape:pageshadow="2"
     inkscape:zoom="0.98994949"
     inkscape:cx="88.245562"
     inkscape:cy="150.19326"
     inkscape:document-units="mm"
     inkscape:current-layer="flowRoot888"
     showgrid="false"
     inkscape:window-width="1920"
     inkscape:window-height="1017"
     inkscape:window-x="-8"
     inkscape:window-y="-8"
     inkscape:window-maximized="1"
     fit-margin-left="5"
     fit-margin-top="5"
     fit-margin-right="5"
     fit-margin-bottom="5" />
  <metadata
     id="metadata5">
    <rdf:RDF>
      <cc:Work
         rdf:about="">
        <dc:format>image/svg+xml</dc:format>
        <dc:type
           rdf:resource="http://purl.org/dc/dcmitype/StillImage" />
        <dc:title />
      </cc:Work>
    </rdf:RDF>
  </metadata>
  <g
     inkscape:label="Layer 1"
     inkscape:groupmode="layer"
     id="layer1"
     style="opacity:1"
     transform="translate(-35.861313,-19.018945)">
    <g
       id="g862"
       transform="matrix(0.69844386,0,0,0.69844386,10.315327,7.8534327)">
      <path
         inkscape:connector-curvature="0"
         id="path826"
         d="M 101.92809,90.253348 C 87.507207,89.942333 74.86516,88.645684 62.823656,86.242548 56.459631,84.972473 49.208965,83.045425 44.480369,81.367355 l -0.74378,-0.26395 v -1.629359 -1.629359 h 10.234829 10.234829 l 1.907112,0.477018 c 15.057608,3.766287 33.213053,5.237101 51.501411,4.172242 28.83264,-1.678811 51.93094,-9.819596 56.97213,-20.079309 0.72094,-1.467256 1.01376,-2.690314 1.01376,-4.234442 0,-0.812497 -0.0295,-1.16699 -0.14164,-1.700193 -0.47922,-2.279299 -1.67496,-4.338845 -3.7268,-6.419006 C 164.49414,42.722995 147.75744,36.967011 126.88563,34.637634 113.91904,33.190511 99.591352,33.144789 86.562193,34.508957 79.073432,35.293038 71.440711,36.625781 65.442931,38.19657 l -0.973585,0.254976 h -10.3675 -10.367499 l 0.01716,-1.587045 0.01716,-1.587045 0.641582,-0.180156 c 1.098536,-0.308468 5.320594,-1.373664 6.80077,-1.715785 13.930027,-3.219731 29.763258,-5.306494 45.969363,-6.058595 4.720958,-0.219094 6.590328,-0.256608 12.831628,-0.257506 6.27945,-9.09e-4 8.02573,0.03475 12.57501,0.256761 18.21636,0.888962 34.04286,3.659539 46.54679,8.14845 14.22385,5.106364 23.24295,11.741225 25.59384,18.827999 0.8555,2.578934 0.87445,5.065668 0.0579,7.600085 -1.28298,3.982019 -4.6354,7.826258 -9.929,11.385621 -5.36039,3.604282 -12.93461,6.946607 -21.65734,9.556884 -14.10982,4.222356 -30.50259,6.657182 -49.3056,7.323387 -1.80264,0.06388 -10.22317,0.126322 -11.9655,0.08875 z m 0.19247,-16.389071 c -3.015148,-0.368973 -4.517178,-1.65475 -5.063218,-4.334239 -0.25334,-1.243193 -0.27027,-1.8823 -0.24448,-9.232622 0.0242,-6.872346 0.0284,-7.075908 0.16079,-7.763143 0.33198,-1.722173 0.85784,-2.736944 1.81735,-3.507005 1.0301,-0.826709 2.546738,-1.223454 4.676878,-1.223454 3.88089,0 5.77733,1.308616 6.41236,4.424773 0.24487,1.20155 0.27052,2.171964 0.24466,9.255757 -0.0269,7.380536 -0.0237,7.311953 -0.4079,8.649945 -0.27707,0.964958 -0.61987,1.57167 -1.24259,2.199243 -0.78785,0.793978 -1.60479,1.179597 -3.04971,1.439535 -0.68336,0.122935 -2.61023,0.176126 -3.30414,0.09121 z m 1.86269,-4.265006 c 0.10346,-0.05353 0.23921,-0.190666 0.30156,-0.304752 0.10674,-0.195298 0.11339,-0.695194 0.11339,-8.547995 v -8.340567 l -0.14278,-0.229576 c -0.17952,-0.28865 -0.37834,-0.379927 -0.82755,-0.379927 -0.30389,0 -0.38082,0.02604 -0.53628,0.181491 -0.0999,0.09982 -0.21292,0.294701 -0.25134,0.433068 -0.0486,0.175202 -0.07,2.697295 -0.0702,8.307827 -3.8e-4,8.95239 -0.0167,8.595687 0.404,8.852194 0.24958,0.152182 0.74285,0.165982 1.00922,0.02824 z m -41.448307,4.043181 c -1.37689,-0.312698 -2.26146,-1.293389 -2.532476,-2.807659 -0.09253,-0.516994 -0.103225,-1.064896 -0.08358,-4.281951 0.02187,-3.582511 0.02666,-3.703927 0.165464,-4.202362 0.286899,-1.030193 0.815012,-1.904278 1.504065,-2.489389 0.513619,-0.436141 1.120807,-0.802365 2.422169,-1.460918 1.434993,-0.726177 2.351557,-1.325784 2.864028,-1.873617 0.629474,-0.67291 0.632595,-0.684371 0.632595,-2.324169 0,-1.284545 -0.01155,-1.434188 -0.128317,-1.663973 -0.184821,-0.363677 -0.39172,-0.491983 -0.798438,-0.495132 -0.407395,-0.0032 -0.618111,0.126367 -0.805517,0.495132 -0.119514,0.235171 -0.12977,0.403233 -0.149491,2.449911 l -0.02117,2.197418 h -2.853984 -2.853984 l 0.02336,-2.48613 c 0.02178,-2.317424 0.03291,-2.52096 0.163838,-2.999397 0.721504,-2.63626 2.809307,-3.894924 6.461327,-3.895304 1.713876,-1.93e-4 2.901945,0.221308 3.94573,0.735587 0.423652,0.208735 0.660808,0.383664 1.062778,0.783911 0.587827,0.58531 0.931499,1.178889 1.208391,2.087095 0.397458,1.303655 0.377027,0.778672 0.421956,10.842737 0.0438,9.81168 0.03485,9.536682 0.348168,10.698381 l 0.09085,0.336831 h -2.905044 -2.905043 l -0.07986,-0.400989 c -0.04392,-0.220544 -0.0982,-0.675264 -0.120625,-1.010491 l -0.04077,-0.609503 -0.254267,0.415849 c -0.522717,0.8549 -1.346132,1.507244 -2.312678,1.832198 -0.645478,0.217011 -1.807502,0.27627 -2.469475,0.125934 z m 4.561785,-4.73328 c 0.430138,-0.287757 0.436585,-0.349824 0.439748,-4.232957 0.0015,-1.896678 -0.01885,-3.447699 -0.04531,-3.446715 -0.109676,0.0041 -1.096555,0.898485 -1.381751,1.252284 -0.499092,0.619141 -0.507627,0.680535 -0.483596,3.478302 0.01879,2.187617 0.03207,2.443922 0.137629,2.656051 0.216749,0.43558 0.896788,0.585043 1.33328,0.293035 z m 69.733422,4.729299 c -1.01561,-0.218915 -1.80707,-0.835933 -2.21708,-1.728418 -0.41899,-0.912018 -0.42922,-1.013216 -0.46011,-4.553434 -0.0306,-3.508393 0.0105,-4.294298 0.27574,-5.207865 0.2473,-0.853372 0.55576,-1.386205 1.14941,-1.985422 0.66487,-0.671112 1.01379,-0.899813 2.71617,-1.780415 1.67486,-0.866366 2.20746,-1.206862 2.78756,-1.782162 0.6889,-0.683199 0.72068,-0.789066 0.72002,-2.398368 -6.5e-4,-1.242994 -0.0117,-1.370568 -0.13875,-1.647519 -0.1664,-0.361517 -0.42641,-0.516587 -0.86625,-0.516587 -0.37582,0 -0.57202,0.118566 -0.73317,0.443069 -0.1114,0.224276 -0.12357,0.437347 -0.1417,2.475553 l -0.0198,2.230157 -2.86729,-0.01671 -2.86729,-0.01669 -0.0196,-1.860588 c -0.0219,-2.088384 0.0441,-2.978248 0.28186,-3.798735 0.47986,-1.655875 1.6497,-2.791758 3.42678,-3.327287 1.47904,-0.445709 3.81391,-0.498805 5.47548,-0.12451 0.49005,0.110386 0.91114,0.258402 1.35498,0.476261 1.26645,0.621632 1.93007,1.460801 2.38203,3.012125 0.3772,1.294719 0.36272,0.908098 0.40988,10.947864 l 0.0434,9.238783 0.14514,0.641582 c 0.0798,0.35287 0.16036,0.706542 0.17894,0.785938 l 0.0338,0.144356 h -2.89028 c -2.69727,0 -2.89249,-0.0075 -2.92335,-0.112277 -0.0616,-0.209046 -0.16069,-0.879697 -0.20453,-1.383949 l -0.0436,-0.501773 -0.1939,0.341378 c -0.10662,0.187757 -0.42788,0.575154 -0.71382,0.86088 -0.41129,0.410966 -0.63385,0.574737 -1.06526,0.78388 -0.90233,0.437439 -2.03267,0.572713 -3.01543,0.360877 z m 4.47399,-4.691115 c 0.15985,-0.07585 0.26696,-0.194322 0.36257,-0.400988 0.13212,-0.285574 0.13622,-0.386248 0.15526,-3.805995 0.0105,-1.931965 -7.6e-4,-3.512663 -0.0261,-3.512663 -0.0959,0 -0.7255,0.529145 -1.13784,0.956255 -0.25415,0.263258 -0.49653,0.590656 -0.59256,0.800386 l -0.16247,0.354903 0.0195,2.553128 c 0.0176,2.322849 0.03,2.572371 0.13586,2.766484 0.20308,0.372142 0.78544,0.50699 1.24589,0.28849 z M 43.736589,57.731089 V 42.172723 h 3.239693 3.239695 l 0.01634,6.706983 0.01634,6.706983 1.539797,-6.706939 1.539798,-6.706938 3.102497,-4.6e-5 c 2.728219,-3.8e-5 3.098054,0.01155 3.065655,0.09597 -0.02026,0.05281 -0.907714,2.957597 -1.972109,6.455085 l -1.935264,6.359073 1.965244,9.02665 c 1.080884,4.964655 1.965243,9.061131 1.965243,9.103279 0,0.05838 -0.761313,0.07663 -3.196058,0.07663 h -3.196058 l -0.528922,-2.87108 c -0.290906,-1.579094 -0.943474,-5.108597 -1.45015,-7.843342 l -0.921229,-4.97226 -0.0052,7.843341 -0.0052,7.843341 h -3.240029 -3.23999 z m 31.180888,0 V 42.172723 h 2.855042 2.85504 v 15.558366 15.558365 h -2.85504 -2.855042 z m 7.442354,0 V 42.172723 h 2.854802 2.854802 l 0.01627,8.370715 0.01627,8.370717 1.146556,-5.210925 c 0.630603,-2.866007 1.166463,-5.232875 1.190797,-5.259704 0.02438,-0.02683 1.342711,-0.04127 2.929736,-0.03208 l 2.885488,0.0167 -1.38869,5.365241 -1.388698,5.36524 1.387538,7.049375 1.38754,7.049372 -2.980267,0.01668 c -1.784538,0.01003 -2.994804,-0.0072 -3.016513,-0.04289 -0.01995,-0.03277 -0.512646,-2.869649 -1.094877,-6.304187 l -1.05861,-6.244613 -0.01635,6.303544 -0.01636,6.303544 h -2.854726 -2.854726 z m 29.384459,3.111673 V 48.396069 h 2.78926 2.78924 l 0.0176,1.005656 0.0176,1.005656 0.28415,-0.444272 c 0.42774,-0.668796 1.06476,-1.257912 1.69237,-1.565105 0.72237,-0.353586 1.16391,-0.454918 2.00129,-0.459314 1.11568,-0.0058 1.80293,0.222604 2.46777,0.820349 0.3839,0.345159 0.71875,0.831126 0.92935,1.348784 l 0.13967,0.343278 0.30707,-0.449406 c 0.39249,-0.574452 1.1905,-1.325787 1.69208,-1.593125 0.59431,-0.31676 1.26908,-0.468237 2.09889,-0.47116 1.22399,-0.0043 2.03755,0.284989 2.66396,0.947321 0.58947,0.623285 0.86618,1.415278 0.96125,2.751328 0.0327,0.45873 0.0604,5.518407 0.0616,11.243726 l 0.002,10.409669 h -2.88608 -2.88615 l -0.017,-10.056799 c -0.0158,-9.331677 -0.025,-10.071182 -0.12626,-10.256277 -0.12863,-0.234858 -0.41033,-0.367383 -0.77995,-0.366922 -0.36279,4.49e-4 -0.64192,0.160654 -0.78631,0.451297 -0.11668,0.234873 -0.12151,0.594223 -0.13774,10.23606 l -0.0168,9.992641 h -2.82121 -2.82119 l -0.017,-10.056799 c -0.0157,-9.331677 -0.0249,-10.071182 -0.12626,-10.256277 -0.16239,-0.296499 -0.6587,-0.458687 -1.0671,-0.348715 -0.30422,0.08191 -0.55582,0.345475 -0.64583,0.676509 -0.0488,0.179635 -0.0699,3.216247 -0.0702,10.120957 l -3.5e-4,9.864325 h -2.85493 -2.85505 z m 40.45174,12.351993 c -1.06363,-0.23348 -1.64501,-0.656679 -2.02926,-1.477176 -0.42016,-0.897163 -0.3976,-0.367393 -0.43709,-10.265314 l -0.0358,-8.98215 -0.68969,-0.01821 -0.68971,-0.01821 V 50.417053 48.40041 l 0.68971,-0.01821 0.68969,-0.01821 0.0168,-2.710684 0.0168,-2.710685 h 2.85365 2.85365 l 0.0168,2.710685 0.0168,2.710684 0.81803,0.01796 0.81801,0.01795 v 2.01715 2.017151 l -0.81801,0.01795 -0.81803,0.01796 -0.0176,7.53859 c -0.0172,7.320621 0.004,8.35023 0.17979,8.735886 0.11997,0.263288 0.4189,0.394154 0.9737,0.42627 l 0.50016,0.02895 v 2.044819 2.04482 l -2.26158,-0.0051 c -1.61607,-0.0036 -2.37144,-0.02922 -2.64653,-0.0896 z"
         style="opacity:1;fill:url(#linearGradient1664);fill-opacity:1;stroke-width:0.06415821" />
      <flowRoot
         xml:space="preserve"
         id="flowRoot864"
         style="font-style:normal;font-variant:normal;font-weight:normal;font-stretch:normal;font-size:64px;line-height:1.25;font-family:Calibri;-inkscape-font-specification:Calibri;letter-spacing:0px;word-spacing:0px;fill:#000000;fill-opacity:1;stroke:none"
         transform="matrix(0.37881833,0,0,0.37881833,-14.769014,-11.244186)"><flowRegion
           id="flowRegion866"
           style="font-size:64px"><rect
             id="rect868"
             width="284.86301"
             height="151.52289"
             x="272.74118"
             y="398.2403"
             style="font-size:64px" /></flowRegion><flowPara
           id="flowPara870" /></flowRoot>      <flowRoot
         xml:space="preserve"
         id="flowRoot872"
         style="font-style:normal;font-variant:normal;font-weight:normal;font-stretch:normal;font-size:53.33333206px;line-height:1.25;font-family:Calibri;-inkscape-font-specification:Calibri;letter-spacing:0px;word-spacing:0px;fill:#000000;fill-opacity:1;stroke:none"
         transform="matrix(0.37881833,0,0,0.37881833,-14.769014,-11.244186)"><flowRegion
           id="flowRegion874"
           style="font-size:53.33333206px"><rect
             id="rect876"
             width="163.64471"
             height="158.59395"
             x="176.7767"
             y="383.08801"
             style="font-size:53.33333206px" /></flowRegion><flowPara
           id="flowPara878" /></flowRoot>      <flowRoot
         xml:space="preserve"
         id="flowRoot880"
         style="font-style:normal;font-variant:normal;font-weight:normal;font-stretch:normal;font-size:18.66666603px;line-height:1.25;font-family:Calibri;-inkscape-font-specification:Calibri;letter-spacing:0px;word-spacing:0px;fill:#000000;fill-opacity:1;stroke:none"
         transform="matrix(0.37881833,0,0,0.37881833,-14.769014,-11.244186)"><flowRegion
           id="flowRegion882"><rect
             id="rect884"
             width="408.10162"
             height="269.71072"
             x="162.63457"
             y="399.25046" /></flowRegion><flowPara
           id="flowPara886" /></flowRoot>      <g
         aria-label="ay"
         transform="matrix(0.37881833,0,0,0.37881833,139.31902,-112.76464)"
         style="font-style:normal;font-variant:normal;font-weight:normal;font-stretch:normal;font-size:64px;line-height:1.25;font-family:'Bauhaus 93';-inkscape-font-specification:'Bauhaus 93, ';letter-spacing:0px;word-spacing:0px;fill:#2484c6;fill-opacity:1;stroke:none"
         id="flowRoot888">
        <path
           d="m 125.99609,543.93039 v 25.19531 q -2.99479,0.52083 -5.46875,0.52083 -14.64843,0 -24.414059,-9.63541 -9.765625,-9.63542 -9.765625,-24.15365 0,-14.1276 9.830729,-23.95833 9.895835,-9.83073 24.023435,-9.83073 15.75521,0 24.80469,9.24479 9.11458,9.17969 9.11458,25.13021 v 31.83594 h -24.34896 v -30.07813 q 0,-5.14323 -2.53906,-8.20312 -2.47396,-3.0599 -6.70573,-3.0599 -3.84114,0 -6.64062,2.79948 -2.79948,2.79948 -2.79948,6.64063 0,4.03645 2.53906,6.64062 2.53906,2.60417 6.44531,2.60417 3.19011,0 5.92448,-1.69271 z"
           style="font-size:133.33332825px;letter-spacing:-8px;fill:#2484c6;fill-opacity:1"
           id="path891" />
        <path
           d="m 168.71224,596.72987 v -21.15886 q 4.94791,2.08334 8.65885,2.08334 11.84896,0 15.36458,-13.34636 -6.38021,3.77604 -12.5,3.77604 -9.04948,0 -14.90885,-6.70573 -5.85937,-6.77083 -5.85937,-17.18749 v -40.82032 h 24.34895 v 34.89584 q 0,5.79427 4.81771,5.79427 4.6224,0 4.6224,-6.38021 v -34.3099 h 24.34895 v 57.94271 q 0,16.21094 -9.11458,26.17187 -10.87239,11.84896 -26.30208,11.84896 -6.77083,0 -13.47656,-2.60416 z"
           style="font-size:133.33332825px;letter-spacing:-8px;fill:#2484c6;fill-opacity:1"
           id="path893" />
      </g>
      <rect
         style="opacity:1;vector-effect:none;fill:#2484c6;fill-opacity:1;fill-rule:nonzero;stroke:#2484c6;stroke-width:0.27951142;stroke-linecap:round;stroke-linejoin:round;stroke-miterlimit:4;stroke-dasharray:none;stroke-dashoffset:0;stroke-opacity:0.02156336"
         id="rect2785"
         width="9.2530575"
         height="50.390999"
         x="160.83685"
         y="52.062195"
         ry="0" />
    </g>
  </g>
</svg>
